<mxfile host="app.diagrams.net" modified="2023-05-24T17:26:03.522Z" agent="Mozilla/5.0 (Windows NT 10.0; Win64; x64) AppleWebKit/537.36 (KHTML, like Gecko) Chrome/113.0.0.0 Safari/537.36" etag="voG4419Tbym4cc2pghRb" version="21.3.2" type="github">
  <diagram id="C5RBs43oDa-KdzZeNtuy" name="Page-1">
    <mxGraphModel dx="1518" dy="646" grid="1" gridSize="10" guides="1" tooltips="1" connect="1" arrows="1" fold="1" page="1" pageScale="1" pageWidth="827" pageHeight="1169" math="0" shadow="0">
      <root>
        <mxCell id="WIyWlLk6GJQsqaUBKTNV-0" />
        <mxCell id="WIyWlLk6GJQsqaUBKTNV-1" parent="WIyWlLk6GJQsqaUBKTNV-0" />
        <mxCell id="WIyWlLk6GJQsqaUBKTNV-2" value="" style="rounded=0;html=1;jettySize=auto;orthogonalLoop=1;fontSize=11;endArrow=block;endFill=0;endSize=8;strokeWidth=1;shadow=0;labelBackgroundColor=none;edgeStyle=orthogonalEdgeStyle;" parent="WIyWlLk6GJQsqaUBKTNV-1" source="WIyWlLk6GJQsqaUBKTNV-3" target="WIyWlLk6GJQsqaUBKTNV-6" edge="1">
          <mxGeometry relative="1" as="geometry" />
        </mxCell>
        <mxCell id="WIyWlLk6GJQsqaUBKTNV-3" value="&lt;div&gt;商家入驻&lt;/div&gt;" style="rounded=1;whiteSpace=wrap;html=1;fontSize=12;glass=0;strokeWidth=1;shadow=0;" parent="WIyWlLk6GJQsqaUBKTNV-1" vertex="1">
          <mxGeometry x="440" y="240" width="120" height="40" as="geometry" />
        </mxCell>
        <mxCell id="WIyWlLk6GJQsqaUBKTNV-4" value="Yes" style="rounded=0;html=1;jettySize=auto;orthogonalLoop=1;fontSize=11;endArrow=block;endFill=0;endSize=8;strokeWidth=1;shadow=0;labelBackgroundColor=none;edgeStyle=orthogonalEdgeStyle;" parent="WIyWlLk6GJQsqaUBKTNV-1" source="WIyWlLk6GJQsqaUBKTNV-6" target="WIyWlLk6GJQsqaUBKTNV-10" edge="1">
          <mxGeometry y="20" relative="1" as="geometry">
            <mxPoint as="offset" />
          </mxGeometry>
        </mxCell>
        <mxCell id="WIyWlLk6GJQsqaUBKTNV-5" value="No" style="edgeStyle=orthogonalEdgeStyle;rounded=0;html=1;jettySize=auto;orthogonalLoop=1;fontSize=11;endArrow=block;endFill=0;endSize=8;strokeWidth=1;shadow=0;labelBackgroundColor=none;" parent="WIyWlLk6GJQsqaUBKTNV-1" source="WIyWlLk6GJQsqaUBKTNV-6" target="WIyWlLk6GJQsqaUBKTNV-7" edge="1">
          <mxGeometry y="10" relative="1" as="geometry">
            <mxPoint as="offset" />
          </mxGeometry>
        </mxCell>
        <mxCell id="WIyWlLk6GJQsqaUBKTNV-6" value="&lt;div&gt;验证登录状态&lt;/div&gt;" style="rhombus;whiteSpace=wrap;html=1;shadow=0;fontFamily=Helvetica;fontSize=12;align=center;strokeWidth=1;spacing=6;spacingTop=-4;" parent="WIyWlLk6GJQsqaUBKTNV-1" vertex="1">
          <mxGeometry x="450" y="320" width="100" height="80" as="geometry" />
        </mxCell>
        <mxCell id="WIyWlLk6GJQsqaUBKTNV-7" value="&lt;div&gt;引导去登录&amp;nbsp;&lt;/div&gt;" style="rounded=1;whiteSpace=wrap;html=1;fontSize=12;glass=0;strokeWidth=1;shadow=0;" parent="WIyWlLk6GJQsqaUBKTNV-1" vertex="1">
          <mxGeometry x="600" y="340" width="120" height="40" as="geometry" />
        </mxCell>
        <mxCell id="WIyWlLk6GJQsqaUBKTNV-8" value="No" style="rounded=0;html=1;jettySize=auto;orthogonalLoop=1;fontSize=11;endArrow=block;endFill=0;endSize=8;strokeWidth=1;shadow=0;labelBackgroundColor=none;edgeStyle=orthogonalEdgeStyle;" parent="WIyWlLk6GJQsqaUBKTNV-1" source="WIyWlLk6GJQsqaUBKTNV-10" target="WIyWlLk6GJQsqaUBKTNV-11" edge="1">
          <mxGeometry x="0.3333" y="20" relative="1" as="geometry">
            <mxPoint as="offset" />
          </mxGeometry>
        </mxCell>
        <mxCell id="WIyWlLk6GJQsqaUBKTNV-9" value="Yes" style="edgeStyle=orthogonalEdgeStyle;rounded=0;html=1;jettySize=auto;orthogonalLoop=1;fontSize=11;endArrow=block;endFill=0;endSize=8;strokeWidth=1;shadow=0;labelBackgroundColor=none;" parent="WIyWlLk6GJQsqaUBKTNV-1" source="WIyWlLk6GJQsqaUBKTNV-10" target="WIyWlLk6GJQsqaUBKTNV-12" edge="1">
          <mxGeometry y="10" relative="1" as="geometry">
            <mxPoint as="offset" />
          </mxGeometry>
        </mxCell>
        <mxCell id="WIyWlLk6GJQsqaUBKTNV-10" value="&lt;div&gt;验证是否实名&lt;/div&gt;" style="rhombus;whiteSpace=wrap;html=1;shadow=0;fontFamily=Helvetica;fontSize=12;align=center;strokeWidth=1;spacing=6;spacingTop=-4;" parent="WIyWlLk6GJQsqaUBKTNV-1" vertex="1">
          <mxGeometry x="450" y="440" width="100" height="80" as="geometry" />
        </mxCell>
        <mxCell id="b2kQTYCd4egHWjywcxHz-3" value="" style="edgeStyle=orthogonalEdgeStyle;rounded=0;orthogonalLoop=1;jettySize=auto;html=1;" edge="1" parent="WIyWlLk6GJQsqaUBKTNV-1" source="WIyWlLk6GJQsqaUBKTNV-11" target="b2kQTYCd4egHWjywcxHz-2">
          <mxGeometry relative="1" as="geometry" />
        </mxCell>
        <mxCell id="WIyWlLk6GJQsqaUBKTNV-11" value="&lt;div&gt;选择经营类目&lt;/div&gt;" style="rounded=1;whiteSpace=wrap;html=1;fontSize=12;glass=0;strokeWidth=1;shadow=0;" parent="WIyWlLk6GJQsqaUBKTNV-1" vertex="1">
          <mxGeometry x="440" y="580" width="120" height="40" as="geometry" />
        </mxCell>
        <mxCell id="WIyWlLk6GJQsqaUBKTNV-12" value="&lt;div&gt;用户注册&lt;/div&gt;" style="rounded=1;whiteSpace=wrap;html=1;fontSize=12;glass=0;strokeWidth=1;shadow=0;" parent="WIyWlLk6GJQsqaUBKTNV-1" vertex="1">
          <mxGeometry x="600" y="460" width="120" height="40" as="geometry" />
        </mxCell>
        <mxCell id="b2kQTYCd4egHWjywcxHz-0" value="&lt;span style=&quot;font-size: 18px;&quot;&gt;购买流程&lt;/span&gt;" style="rounded=1;whiteSpace=wrap;html=1;fontSize=12;glass=0;strokeWidth=1;shadow=0;fillColor=#21FF3F;" vertex="1" parent="WIyWlLk6GJQsqaUBKTNV-1">
          <mxGeometry x="210" y="20" width="480" height="40" as="geometry" />
        </mxCell>
        <mxCell id="b2kQTYCd4egHWjywcxHz-1" value="&#xa;&#xa;&lt;div&gt;&lt;span style=&quot;mso-spacerun:&#39;yes&#39;;font-size:8.63768pt;font-family:Arial;color:rgb(0,0,0);&quot;&gt;*&lt;/span&gt;&lt;span style=&quot;mso-spacerun:&#39;yes&#39;;font-size:8.63768pt;font-family:微软雅黑;color:rgb(0,0,0);&quot;&gt;根据类目展示保证金&#xa;&lt;/span&gt;&lt;/div&gt;&#xa;&#xa;&#xa;" style="text;html=1;strokeColor=none;fillColor=none;align=center;verticalAlign=middle;whiteSpace=wrap;rounded=0;" vertex="1" parent="WIyWlLk6GJQsqaUBKTNV-1">
          <mxGeometry x="570" y="585" width="180" height="30" as="geometry" />
        </mxCell>
        <mxCell id="b2kQTYCd4egHWjywcxHz-13" value="" style="edgeStyle=orthogonalEdgeStyle;rounded=0;orthogonalLoop=1;jettySize=auto;html=1;" edge="1" parent="WIyWlLk6GJQsqaUBKTNV-1" source="b2kQTYCd4egHWjywcxHz-2" target="b2kQTYCd4egHWjywcxHz-12">
          <mxGeometry relative="1" as="geometry" />
        </mxCell>
        <mxCell id="b2kQTYCd4egHWjywcxHz-2" value="&lt;div&gt;选择营业执照&lt;/div&gt;" style="whiteSpace=wrap;html=1;rounded=1;glass=0;strokeWidth=1;shadow=0;" vertex="1" parent="WIyWlLk6GJQsqaUBKTNV-1">
          <mxGeometry x="440" y="670" width="120" height="60" as="geometry" />
        </mxCell>
        <mxCell id="b2kQTYCd4egHWjywcxHz-4" value="" style="strokeWidth=2;html=1;shape=mxgraph.flowchart.annotation_2;align=left;labelPosition=right;pointerEvents=1;" vertex="1" parent="WIyWlLk6GJQsqaUBKTNV-1">
          <mxGeometry x="560" y="650" width="50" height="100" as="geometry" />
        </mxCell>
        <mxCell id="b2kQTYCd4egHWjywcxHz-5" value="&lt;div&gt;普通营业制造&amp;nbsp;&lt;/div&gt;" style="rounded=1;whiteSpace=wrap;html=1;absoluteArcSize=1;arcSize=14;strokeWidth=2;" vertex="1" parent="WIyWlLk6GJQsqaUBKTNV-1">
          <mxGeometry x="610" y="630" width="170" height="50" as="geometry" />
        </mxCell>
        <mxCell id="b2kQTYCd4egHWjywcxHz-10" value="" style="edgeStyle=orthogonalEdgeStyle;rounded=0;orthogonalLoop=1;jettySize=auto;html=1;" edge="1" parent="WIyWlLk6GJQsqaUBKTNV-1" source="b2kQTYCd4egHWjywcxHz-6">
          <mxGeometry relative="1" as="geometry">
            <mxPoint x="830" y="755" as="targetPoint" />
          </mxGeometry>
        </mxCell>
        <mxCell id="b2kQTYCd4egHWjywcxHz-6" value="&lt;div&gt;三证合一&amp;nbsp;&lt;/div&gt;" style="rounded=1;whiteSpace=wrap;html=1;absoluteArcSize=1;arcSize=14;strokeWidth=2;" vertex="1" parent="WIyWlLk6GJQsqaUBKTNV-1">
          <mxGeometry x="610" y="730" width="170" height="50" as="geometry" />
        </mxCell>
        <mxCell id="b2kQTYCd4egHWjywcxHz-7" value="" style="strokeWidth=2;html=1;shape=mxgraph.flowchart.annotation_2;align=left;labelPosition=right;pointerEvents=1;" vertex="1" parent="WIyWlLk6GJQsqaUBKTNV-1">
          <mxGeometry x="780" y="630" width="40" height="50" as="geometry" />
        </mxCell>
        <mxCell id="b2kQTYCd4egHWjywcxHz-8" value="&lt;div&gt;企业注册号&lt;/div&gt;" style="rounded=1;whiteSpace=wrap;html=1;absoluteArcSize=1;arcSize=14;strokeWidth=2;" vertex="1" parent="WIyWlLk6GJQsqaUBKTNV-1">
          <mxGeometry x="820" y="610" width="160" height="35" as="geometry" />
        </mxCell>
        <mxCell id="b2kQTYCd4egHWjywcxHz-9" value="&lt;div&gt;组织机构代码&lt;/div&gt;" style="rounded=1;whiteSpace=wrap;html=1;absoluteArcSize=1;arcSize=14;strokeWidth=2;" vertex="1" parent="WIyWlLk6GJQsqaUBKTNV-1">
          <mxGeometry x="820" y="660" width="160" height="35" as="geometry" />
        </mxCell>
        <mxCell id="b2kQTYCd4egHWjywcxHz-11" value="&lt;div&gt;社会统一信用代码&lt;/div&gt;" style="rounded=1;whiteSpace=wrap;html=1;absoluteArcSize=1;arcSize=14;strokeWidth=2;" vertex="1" parent="WIyWlLk6GJQsqaUBKTNV-1">
          <mxGeometry x="830" y="737.5" width="140" height="35" as="geometry" />
        </mxCell>
        <mxCell id="b2kQTYCd4egHWjywcxHz-26" value="" style="edgeStyle=orthogonalEdgeStyle;rounded=0;orthogonalLoop=1;jettySize=auto;html=1;" edge="1" parent="WIyWlLk6GJQsqaUBKTNV-1" source="b2kQTYCd4egHWjywcxHz-12" target="b2kQTYCd4egHWjywcxHz-25">
          <mxGeometry relative="1" as="geometry" />
        </mxCell>
        <mxCell id="b2kQTYCd4egHWjywcxHz-12" value="&lt;div&gt;选择法人身份&lt;/div&gt;" style="whiteSpace=wrap;html=1;rounded=1;glass=0;strokeWidth=1;shadow=0;" vertex="1" parent="WIyWlLk6GJQsqaUBKTNV-1">
          <mxGeometry x="440" y="852.5" width="120" height="60" as="geometry" />
        </mxCell>
        <mxCell id="b2kQTYCd4egHWjywcxHz-14" value="" style="strokeWidth=2;html=1;shape=mxgraph.flowchart.annotation_2;align=left;labelPosition=right;pointerEvents=1;" vertex="1" parent="WIyWlLk6GJQsqaUBKTNV-1">
          <mxGeometry x="560" y="822.5" width="50" height="127.5" as="geometry" />
        </mxCell>
        <mxCell id="b2kQTYCd4egHWjywcxHz-15" value="&lt;div&gt;法人为中国身份&amp;nbsp;&lt;/div&gt;" style="rounded=1;whiteSpace=wrap;html=1;absoluteArcSize=1;arcSize=14;strokeWidth=2;" vertex="1" parent="WIyWlLk6GJQsqaUBKTNV-1">
          <mxGeometry x="610" y="820" width="170" height="50" as="geometry" />
        </mxCell>
        <mxCell id="b2kQTYCd4egHWjywcxHz-16" value="&lt;div&gt;法人为境外身份&lt;/div&gt;" style="rounded=1;whiteSpace=wrap;html=1;absoluteArcSize=1;arcSize=14;strokeWidth=2;" vertex="1" parent="WIyWlLk6GJQsqaUBKTNV-1">
          <mxGeometry x="610" y="920" width="170" height="50" as="geometry" />
        </mxCell>
        <mxCell id="b2kQTYCd4egHWjywcxHz-17" value="" style="strokeWidth=2;html=1;shape=mxgraph.flowchart.annotation_2;align=left;labelPosition=right;pointerEvents=1;" vertex="1" parent="WIyWlLk6GJQsqaUBKTNV-1">
          <mxGeometry x="780" y="820" width="40" height="50" as="geometry" />
        </mxCell>
        <mxCell id="b2kQTYCd4egHWjywcxHz-18" value="&lt;div&gt;企业&lt;span style=&quot;font-size: 8.63768pt; font-family: Arial;&quot;&gt;Logo&amp;nbsp;&lt;/span&gt;&lt;/div&gt;" style="rounded=1;whiteSpace=wrap;html=1;absoluteArcSize=1;arcSize=14;strokeWidth=2;" vertex="1" parent="WIyWlLk6GJQsqaUBKTNV-1">
          <mxGeometry x="820" y="800" width="160" height="35" as="geometry" />
        </mxCell>
        <mxCell id="b2kQTYCd4egHWjywcxHz-19" value="&lt;div&gt;法人姓名&lt;span style=&quot;font-size: 8.63768pt; font-family: Arial;&quot;&gt;+&lt;/span&gt;&lt;span style=&quot;font-size: 8.63768pt; font-family: 微软雅黑;&quot;&gt;证件号&lt;/span&gt;&lt;/div&gt;" style="rounded=1;whiteSpace=wrap;html=1;absoluteArcSize=1;arcSize=14;strokeWidth=2;" vertex="1" parent="WIyWlLk6GJQsqaUBKTNV-1">
          <mxGeometry x="820" y="852.5" width="160" height="35" as="geometry" />
        </mxCell>
        <mxCell id="b2kQTYCd4egHWjywcxHz-22" value="" style="strokeWidth=2;html=1;shape=mxgraph.flowchart.annotation_2;align=left;labelPosition=right;pointerEvents=1;" vertex="1" parent="WIyWlLk6GJQsqaUBKTNV-1">
          <mxGeometry x="780" y="920" width="40" height="50" as="geometry" />
        </mxCell>
        <mxCell id="b2kQTYCd4egHWjywcxHz-23" value="&lt;div&gt;企业&lt;span style=&quot;font-size: 8.63768pt; font-family: Arial;&quot;&gt;Logo&amp;nbsp;&lt;/span&gt;&lt;/div&gt;" style="rounded=1;whiteSpace=wrap;html=1;absoluteArcSize=1;arcSize=14;strokeWidth=2;" vertex="1" parent="WIyWlLk6GJQsqaUBKTNV-1">
          <mxGeometry x="820" y="900" width="160" height="35" as="geometry" />
        </mxCell>
        <mxCell id="b2kQTYCd4egHWjywcxHz-24" value="&lt;div&gt;代理人姓名&lt;span style=&quot;font-size: 8.63768pt; font-family: Arial;&quot;&gt;+&lt;/span&gt;&lt;span style=&quot;font-size: 8.63768pt; font-family: 微软雅黑;&quot;&gt;证件号&lt;/span&gt;&lt;/div&gt;" style="rounded=1;whiteSpace=wrap;html=1;absoluteArcSize=1;arcSize=14;strokeWidth=2;" vertex="1" parent="WIyWlLk6GJQsqaUBKTNV-1">
          <mxGeometry x="820" y="950" width="160" height="35" as="geometry" />
        </mxCell>
        <mxCell id="b2kQTYCd4egHWjywcxHz-28" value="" style="edgeStyle=orthogonalEdgeStyle;rounded=0;orthogonalLoop=1;jettySize=auto;html=1;" edge="1" parent="WIyWlLk6GJQsqaUBKTNV-1" source="b2kQTYCd4egHWjywcxHz-25" target="b2kQTYCd4egHWjywcxHz-27">
          <mxGeometry relative="1" as="geometry" />
        </mxCell>
        <mxCell id="b2kQTYCd4egHWjywcxHz-25" value="&lt;div&gt;&lt;span style=&quot;font-family: 微软雅黑; font-size: 8.63768pt; background-color: initial;&quot;&gt;上传营业执照&amp;nbsp;&lt;/span&gt;&lt;br&gt;&lt;/div&gt;" style="whiteSpace=wrap;html=1;rounded=1;glass=0;strokeWidth=1;shadow=0;" vertex="1" parent="WIyWlLk6GJQsqaUBKTNV-1">
          <mxGeometry x="440" y="960" width="120" height="60" as="geometry" />
        </mxCell>
        <mxCell id="b2kQTYCd4egHWjywcxHz-30" value="" style="edgeStyle=orthogonalEdgeStyle;rounded=0;orthogonalLoop=1;jettySize=auto;html=1;" edge="1" parent="WIyWlLk6GJQsqaUBKTNV-1" source="b2kQTYCd4egHWjywcxHz-27" target="b2kQTYCd4egHWjywcxHz-29">
          <mxGeometry relative="1" as="geometry" />
        </mxCell>
        <mxCell id="b2kQTYCd4egHWjywcxHz-27" value="&lt;div&gt;&lt;div&gt;发起申请&amp;nbsp;&lt;/div&gt;&lt;/div&gt;" style="whiteSpace=wrap;html=1;rounded=1;glass=0;strokeWidth=1;shadow=0;" vertex="1" parent="WIyWlLk6GJQsqaUBKTNV-1">
          <mxGeometry x="440" y="1060" width="120" height="60" as="geometry" />
        </mxCell>
        <mxCell id="b2kQTYCd4egHWjywcxHz-29" value="&lt;div&gt;提交审核成功&lt;/div&gt;" style="whiteSpace=wrap;html=1;rounded=1;glass=0;strokeWidth=1;shadow=0;" vertex="1" parent="WIyWlLk6GJQsqaUBKTNV-1">
          <mxGeometry x="440" y="1160" width="120" height="60" as="geometry" />
        </mxCell>
        <mxCell id="b2kQTYCd4egHWjywcxHz-31" value="&#xa;&#xa;&lt;div&gt;&lt;span style=&quot;mso-spacerun:&#39;yes&#39;;font-size:8.63768pt;font-family:Arial;color:rgb(0,0,0);&quot;&gt;*&lt;/span&gt;&lt;span style=&quot;mso-spacerun:&#39;yes&#39;;font-size:8.63768pt;font-family:微软雅黑;color:rgb(0,0,0);&quot;&gt;按钮状态改变&lt;/span&gt;&lt;span style=&quot;mso-spacerun:&#39;yes&#39;;font-size:8.63768pt;font-family:Arial;color:rgb(0,0,0);&quot;&gt; - &lt;/span&gt;&lt;span style=&quot;mso-spacerun:&#39;yes&#39;;font-size:8.63768pt;font-family:微软雅黑;color:rgb(0,0,0);&quot;&gt;审核中&lt;/span&gt;&lt;/div&gt;&#xa;&#xa;&#xa;" style="text;html=1;strokeColor=none;fillColor=none;align=center;verticalAlign=middle;whiteSpace=wrap;rounded=0;" vertex="1" parent="WIyWlLk6GJQsqaUBKTNV-1">
          <mxGeometry x="570" y="1175" width="140" height="30" as="geometry" />
        </mxCell>
        <mxCell id="b2kQTYCd4egHWjywcxHz-32" value="&lt;font style=&quot;font-size: 18px;&quot;&gt;买家&lt;/font&gt;" style="rounded=1;whiteSpace=wrap;html=1;" vertex="1" parent="WIyWlLk6GJQsqaUBKTNV-1">
          <mxGeometry x="90" y="90" width="120" height="60" as="geometry" />
        </mxCell>
        <mxCell id="b2kQTYCd4egHWjywcxHz-35" value="" style="edgeStyle=orthogonalEdgeStyle;rounded=0;orthogonalLoop=1;jettySize=auto;html=1;" edge="1" parent="WIyWlLk6GJQsqaUBKTNV-1" source="b2kQTYCd4egHWjywcxHz-33" target="b2kQTYCd4egHWjywcxHz-34">
          <mxGeometry relative="1" as="geometry" />
        </mxCell>
        <mxCell id="b2kQTYCd4egHWjywcxHz-33" value="&lt;font style=&quot;font-size: 14px;&quot;&gt;选择商品&lt;/font&gt;" style="rounded=1;whiteSpace=wrap;html=1;" vertex="1" parent="WIyWlLk6GJQsqaUBKTNV-1">
          <mxGeometry x="250" y="90" width="110" height="40" as="geometry" />
        </mxCell>
        <mxCell id="b2kQTYCd4egHWjywcxHz-37" value="" style="edgeStyle=orthogonalEdgeStyle;rounded=0;orthogonalLoop=1;jettySize=auto;html=1;" edge="1" parent="WIyWlLk6GJQsqaUBKTNV-1" source="b2kQTYCd4egHWjywcxHz-34" target="b2kQTYCd4egHWjywcxHz-36">
          <mxGeometry relative="1" as="geometry" />
        </mxCell>
        <mxCell id="b2kQTYCd4egHWjywcxHz-34" value="&lt;div&gt;立即购买&lt;/div&gt;" style="rounded=1;whiteSpace=wrap;html=1;" vertex="1" parent="WIyWlLk6GJQsqaUBKTNV-1">
          <mxGeometry x="440" y="90" width="110" height="40" as="geometry" />
        </mxCell>
        <mxCell id="b2kQTYCd4egHWjywcxHz-39" value="" style="edgeStyle=orthogonalEdgeStyle;rounded=0;orthogonalLoop=1;jettySize=auto;html=1;" edge="1" parent="WIyWlLk6GJQsqaUBKTNV-1" source="b2kQTYCd4egHWjywcxHz-36" target="b2kQTYCd4egHWjywcxHz-38">
          <mxGeometry relative="1" as="geometry" />
        </mxCell>
        <mxCell id="b2kQTYCd4egHWjywcxHz-36" value="&lt;div&gt;点击选择收货地址&lt;/div&gt;" style="rounded=1;whiteSpace=wrap;html=1;" vertex="1" parent="WIyWlLk6GJQsqaUBKTNV-1">
          <mxGeometry x="630" y="90" width="110" height="40" as="geometry" />
        </mxCell>
        <mxCell id="b2kQTYCd4egHWjywcxHz-41" value="" style="edgeStyle=orthogonalEdgeStyle;rounded=0;orthogonalLoop=1;jettySize=auto;html=1;" edge="1" parent="WIyWlLk6GJQsqaUBKTNV-1" source="b2kQTYCd4egHWjywcxHz-38" target="b2kQTYCd4egHWjywcxHz-40">
          <mxGeometry relative="1" as="geometry" />
        </mxCell>
        <mxCell id="b2kQTYCd4egHWjywcxHz-38" value="&lt;div&gt;选择购买商品数量&lt;/div&gt;" style="rounded=1;whiteSpace=wrap;html=1;" vertex="1" parent="WIyWlLk6GJQsqaUBKTNV-1">
          <mxGeometry x="820" y="90" width="110" height="40" as="geometry" />
        </mxCell>
        <mxCell id="b2kQTYCd4egHWjywcxHz-43" value="" style="edgeStyle=orthogonalEdgeStyle;rounded=0;orthogonalLoop=1;jettySize=auto;html=1;" edge="1" parent="WIyWlLk6GJQsqaUBKTNV-1" source="b2kQTYCd4egHWjywcxHz-40" target="b2kQTYCd4egHWjywcxHz-42">
          <mxGeometry relative="1" as="geometry" />
        </mxCell>
        <mxCell id="b2kQTYCd4egHWjywcxHz-40" value="提交订单" style="rounded=1;whiteSpace=wrap;html=1;" vertex="1" parent="WIyWlLk6GJQsqaUBKTNV-1">
          <mxGeometry x="820" y="180" width="110" height="40" as="geometry" />
        </mxCell>
        <mxCell id="b2kQTYCd4egHWjywcxHz-45" value="" style="edgeStyle=orthogonalEdgeStyle;rounded=0;orthogonalLoop=1;jettySize=auto;html=1;" edge="1" parent="WIyWlLk6GJQsqaUBKTNV-1" source="b2kQTYCd4egHWjywcxHz-42" target="b2kQTYCd4egHWjywcxHz-44">
          <mxGeometry relative="1" as="geometry" />
        </mxCell>
        <mxCell id="b2kQTYCd4egHWjywcxHz-42" value="提交订单" style="rounded=1;whiteSpace=wrap;html=1;" vertex="1" parent="WIyWlLk6GJQsqaUBKTNV-1">
          <mxGeometry x="820" y="280" width="110" height="40" as="geometry" />
        </mxCell>
        <mxCell id="b2kQTYCd4egHWjywcxHz-44" value="全部订单中显示该单" style="rounded=1;whiteSpace=wrap;html=1;" vertex="1" parent="WIyWlLk6GJQsqaUBKTNV-1">
          <mxGeometry x="785" y="370" width="180" height="50" as="geometry" />
        </mxCell>
        <mxCell id="b2kQTYCd4egHWjywcxHz-47" value="YES" style="text;html=1;strokeColor=none;fillColor=none;align=center;verticalAlign=middle;whiteSpace=wrap;rounded=0;" vertex="1" parent="WIyWlLk6GJQsqaUBKTNV-1">
          <mxGeometry x="890" y="330" width="60" height="30" as="geometry" />
        </mxCell>
        <mxCell id="b2kQTYCd4egHWjywcxHz-48" value="" style="strokeWidth=2;html=1;shape=mxgraph.flowchart.annotation_2;align=left;labelPosition=right;pointerEvents=1;" vertex="1" parent="WIyWlLk6GJQsqaUBKTNV-1">
          <mxGeometry x="965" y="372.5" width="40" height="50" as="geometry" />
        </mxCell>
        <mxCell id="b2kQTYCd4egHWjywcxHz-52" value="" style="edgeStyle=orthogonalEdgeStyle;rounded=0;orthogonalLoop=1;jettySize=auto;html=1;" edge="1" parent="WIyWlLk6GJQsqaUBKTNV-1" source="b2kQTYCd4egHWjywcxHz-49" target="b2kQTYCd4egHWjywcxHz-51">
          <mxGeometry relative="1" as="geometry" />
        </mxCell>
        <mxCell id="b2kQTYCd4egHWjywcxHz-49" value="&lt;div&gt;查看订单详情&lt;/div&gt;" style="rounded=1;whiteSpace=wrap;html=1;absoluteArcSize=1;arcSize=14;strokeWidth=2;" vertex="1" parent="WIyWlLk6GJQsqaUBKTNV-1">
          <mxGeometry x="1005" y="352.5" width="160" height="35" as="geometry" />
        </mxCell>
        <mxCell id="b2kQTYCd4egHWjywcxHz-50" value="&lt;div&gt;联系卖家&lt;/div&gt;" style="rounded=1;whiteSpace=wrap;html=1;absoluteArcSize=1;arcSize=14;strokeWidth=2;fillColor=#66FF66;" vertex="1" parent="WIyWlLk6GJQsqaUBKTNV-1">
          <mxGeometry x="1005" y="402.5" width="160" height="35" as="geometry" />
        </mxCell>
        <mxCell id="b2kQTYCd4egHWjywcxHz-51" value="&lt;div&gt;联系卖家（bug)&lt;/div&gt;" style="rounded=1;whiteSpace=wrap;html=1;absoluteArcSize=1;arcSize=14;strokeWidth=2;" vertex="1" parent="WIyWlLk6GJQsqaUBKTNV-1">
          <mxGeometry x="1245" y="352.5" width="160" height="35" as="geometry" />
        </mxCell>
      </root>
    </mxGraphModel>
  </diagram>
</mxfile>
